<mxfile host="app.diagrams.net" agent="Mozilla/5.0 (Windows NT 10.0; Win64; x64) AppleWebKit/537.36 (KHTML, like Gecko) Chrome/131.0.0.0 Safari/537.36 Edg/131.0.0.0" border="50" scale="3" compressed="false" locked="false" version="26.0.4">
  <diagram name="Blank" id="YmL12bMKpDGza6XwsDPr">
    <mxGraphModel dx="2305" dy="1770" grid="0" gridSize="10" guides="1" tooltips="1" connect="1" arrows="1" fold="1" page="0" pageScale="1" pageWidth="827" pageHeight="1169" background="none" math="1" shadow="0">
      <root>
        <mxCell id="X5NqExCQtvZxIxQ7pmgY-0" />
        <mxCell id="1" parent="X5NqExCQtvZxIxQ7pmgY-0" />
        <mxCell id="xyV9kidvs-lGtWDfN0AB-1" value="&lt;font face=&quot;Comic Sans MS&quot;&gt;Java&lt;/font&gt;" style="ellipse;whiteSpace=wrap;html=1;align=center;container=1;recursiveResize=0;treeFolding=1;strokeWidth=2;movable=1;resizable=1;rotatable=1;deletable=1;editable=1;locked=0;connectable=1;" vertex="1" parent="1">
          <mxGeometry x="340" y="58" width="108" height="53" as="geometry" />
        </mxCell>
        <mxCell id="xyV9kidvs-lGtWDfN0AB-2" value="" style="edgeStyle=entityRelationEdgeStyle;startArrow=none;endArrow=none;segment=10;curved=1;strokeWidth=2;strokeColor=#336600;rounded=0;fontSize=12;startSize=8;endSize=8;movable=1;resizable=1;rotatable=1;deletable=1;editable=1;locked=0;connectable=1;" edge="1" parent="1" source="xyV9kidvs-lGtWDfN0AB-1" target="xyV9kidvs-lGtWDfN0AB-4">
          <mxGeometry relative="1" as="geometry">
            <mxPoint x="228" y="84.5" as="sourcePoint" />
            <mxPoint x="318" y="44.5" as="targetPoint" />
          </mxGeometry>
        </mxCell>
        <mxCell id="xyV9kidvs-lGtWDfN0AB-3" value="框架" style="text;html=1;resizable=1;points=[];align=center;verticalAlign=middle;labelBackgroundColor=none;rotation=50;fontFamily=Comic Sans MS;movable=1;rotatable=1;deletable=1;editable=1;locked=0;connectable=1;" vertex="1" connectable="0" parent="xyV9kidvs-lGtWDfN0AB-2">
          <mxGeometry x="0.0245" y="2" relative="1" as="geometry">
            <mxPoint x="12" y="-7" as="offset" />
          </mxGeometry>
        </mxCell>
        <mxCell id="xyV9kidvs-lGtWDfN0AB-4" value="" style="whiteSpace=wrap;html=1;rounded=1;arcSize=50;align=center;verticalAlign=middle;container=1;recursiveResize=0;strokeWidth=1;autosize=1;spacing=4;treeFolding=1;movable=1;resizable=1;rotatable=1;deletable=1;editable=1;locked=0;connectable=1;" vertex="1" parent="1">
          <mxGeometry x="237" y="37" height="1" as="geometry" />
        </mxCell>
        <mxCell id="xyV9kidvs-lGtWDfN0AB-5" value="" style="edgeStyle=entityRelationEdgeStyle;startArrow=none;endArrow=none;segment=10;curved=1;strokeColor=#336600;rounded=0;fontSize=12;startSize=8;endSize=8;movable=1;resizable=1;rotatable=1;deletable=1;editable=1;locked=0;connectable=1;" edge="1" parent="1" source="xyV9kidvs-lGtWDfN0AB-4" target="xyV9kidvs-lGtWDfN0AB-7">
          <mxGeometry relative="1" as="geometry">
            <mxPoint x="321" y="118" as="sourcePoint" />
            <mxPoint x="-40" y="110" as="targetPoint" />
          </mxGeometry>
        </mxCell>
        <mxCell id="xyV9kidvs-lGtWDfN0AB-6" value="标准库框架" style="text;html=1;resizable=1;points=[];align=center;verticalAlign=middle;labelBackgroundColor=none;fontFamily=Comic Sans MS;rotation=-1;fontSize=10;movable=1;rotatable=1;deletable=1;editable=1;locked=0;connectable=1;" vertex="1" connectable="0" parent="xyV9kidvs-lGtWDfN0AB-5">
          <mxGeometry x="-0.1124" y="-1" relative="1" as="geometry">
            <mxPoint x="-18" y="6" as="offset" />
          </mxGeometry>
        </mxCell>
        <mxCell id="xyV9kidvs-lGtWDfN0AB-7" value="" style="whiteSpace=wrap;html=1;rounded=1;arcSize=50;align=center;verticalAlign=middle;container=1;recursiveResize=0;strokeWidth=1;autosize=1;spacing=4;treeFolding=1;collapsible=0;movable=1;resizable=1;rotatable=1;deletable=1;editable=1;locked=0;connectable=1;" vertex="1" parent="1">
          <mxGeometry x="168" y="74" height="1" as="geometry" />
        </mxCell>
        <mxCell id="xyV9kidvs-lGtWDfN0AB-8" value="" style="edgeStyle=entityRelationEdgeStyle;startArrow=none;endArrow=none;segment=10;curved=1;strokeWidth=2;strokeColor=#660000;rounded=0;fontSize=12;startSize=8;endSize=8;movable=1;resizable=1;rotatable=1;deletable=1;editable=1;locked=0;connectable=1;" edge="1" parent="1" source="xyV9kidvs-lGtWDfN0AB-7" target="xyV9kidvs-lGtWDfN0AB-10">
          <mxGeometry relative="1" as="geometry">
            <mxPoint x="217" y="127" as="sourcePoint" />
            <mxPoint x="134" y="120.5" as="targetPoint" />
            <Array as="points">
              <mxPoint x="244" y="173" />
            </Array>
          </mxGeometry>
        </mxCell>
        <mxCell id="xyV9kidvs-lGtWDfN0AB-9" value="&lt;font style=&quot;color: rgb(255, 0, 0);&quot;&gt;.lang&lt;/font&gt;&lt;font style=&quot;color: rgb(51, 0, 0);&quot;&gt;基础类&lt;/font&gt;" style="text;html=1;resizable=1;points=[];align=center;verticalAlign=middle;labelBackgroundColor=none;rotation=0;fontFamily=Comic Sans MS;movable=1;rotatable=1;deletable=1;editable=1;locked=0;connectable=1;" vertex="1" connectable="0" parent="xyV9kidvs-lGtWDfN0AB-8">
          <mxGeometry x="0.0245" y="2" relative="1" as="geometry">
            <mxPoint x="-4" y="-1" as="offset" />
          </mxGeometry>
        </mxCell>
        <mxCell id="xyV9kidvs-lGtWDfN0AB-10" value="" style="whiteSpace=wrap;html=1;rounded=1;arcSize=50;align=center;verticalAlign=middle;container=1;recursiveResize=0;strokeWidth=1;autosize=1;spacing=4;treeFolding=1;movable=1;resizable=1;rotatable=1;deletable=1;editable=1;locked=0;connectable=1;" vertex="1" parent="1">
          <mxGeometry x="57" y="172" height="1" as="geometry" />
        </mxCell>
        <mxCell id="xyV9kidvs-lGtWDfN0AB-11" value="" style="edgeStyle=entityRelationEdgeStyle;startArrow=none;endArrow=none;segment=10;curved=1;strokeWidth=2;strokeColor=#660000;rounded=0;fontSize=12;startSize=8;endSize=8;movable=1;resizable=1;rotatable=1;deletable=1;editable=1;locked=0;connectable=1;" edge="1" parent="1" source="xyV9kidvs-lGtWDfN0AB-7" target="xyV9kidvs-lGtWDfN0AB-13">
          <mxGeometry relative="1" as="geometry">
            <mxPoint x="80" y="26" as="sourcePoint" />
            <mxPoint x="50" y="40.5" as="targetPoint" />
            <Array as="points">
              <mxPoint x="160" y="93" />
            </Array>
          </mxGeometry>
        </mxCell>
        <mxCell id="xyV9kidvs-lGtWDfN0AB-12" value="&lt;font style=&quot;color: rgb(255, 0, 0);&quot;&gt;.util&lt;/font&gt;常用&lt;font style=&quot;color: rgb(255, 128, 0);&quot;&gt;数据结构&lt;/font&gt;&lt;font style=&quot;color: rgb(51, 0, 0);&quot;&gt;/&lt;/font&gt;&lt;font style=&quot;color: rgb(255, 128, 0);&quot;&gt;工具类&lt;/font&gt;" style="text;html=1;resizable=1;points=[];align=center;verticalAlign=middle;labelBackgroundColor=none;rotation=0;fontFamily=Comic Sans MS;movable=1;rotatable=1;deletable=1;editable=1;locked=0;connectable=1;" vertex="1" connectable="0" parent="xyV9kidvs-lGtWDfN0AB-11">
          <mxGeometry x="0.0245" y="2" relative="1" as="geometry">
            <mxPoint x="2" y="8" as="offset" />
          </mxGeometry>
        </mxCell>
        <mxCell id="xyV9kidvs-lGtWDfN0AB-13" value="" style="whiteSpace=wrap;html=1;rounded=1;arcSize=50;align=center;verticalAlign=middle;container=1;recursiveResize=0;strokeWidth=1;autosize=1;spacing=4;treeFolding=1;movable=1;resizable=1;rotatable=1;deletable=1;editable=1;locked=0;connectable=1;" vertex="1" parent="1">
          <mxGeometry x="80" y="-4" height="1" as="geometry" />
        </mxCell>
        <mxCell id="xyV9kidvs-lGtWDfN0AB-14" value="" style="edgeStyle=entityRelationEdgeStyle;startArrow=none;endArrow=none;segment=10;curved=1;strokeColor=#660000;rounded=0;fontSize=12;startSize=8;endSize=8;movable=1;resizable=1;rotatable=1;deletable=1;editable=1;locked=0;connectable=1;" edge="1" parent="1" source="xyV9kidvs-lGtWDfN0AB-13" target="xyV9kidvs-lGtWDfN0AB-16">
          <mxGeometry relative="1" as="geometry">
            <mxPoint x="-309" y="203.47000000000003" as="sourcePoint" />
            <mxPoint x="-247" y="225.97000000000003" as="targetPoint" />
          </mxGeometry>
        </mxCell>
        <mxCell id="xyV9kidvs-lGtWDfN0AB-15" value="集合框架" style="text;html=1;resizable=1;points=[];align=center;verticalAlign=middle;labelBackgroundColor=none;fontFamily=Comic Sans MS;rotation=20;collapsible=0;movable=1;rotatable=1;deletable=1;editable=1;locked=0;connectable=1;" vertex="1" connectable="0" parent="xyV9kidvs-lGtWDfN0AB-14">
          <mxGeometry x="0.2571" relative="1" as="geometry">
            <mxPoint x="-14" y="-8" as="offset" />
          </mxGeometry>
        </mxCell>
        <mxCell id="xyV9kidvs-lGtWDfN0AB-16" value="" style="whiteSpace=wrap;html=1;rounded=1;arcSize=50;align=center;verticalAlign=middle;container=1;recursiveResize=0;strokeWidth=1;autosize=1;spacing=4;treeFolding=1;collapsible=0;movable=1;resizable=1;rotatable=1;deletable=1;editable=1;locked=0;connectable=1;" vertex="1" parent="1">
          <mxGeometry x="-49" y="-30" width="5" as="geometry" />
        </mxCell>
        <mxCell id="xyV9kidvs-lGtWDfN0AB-17" value="" style="edgeStyle=entityRelationEdgeStyle;startArrow=none;endArrow=none;segment=10;curved=1;strokeColor=#6c8ebf;rounded=0;fontSize=12;startSize=8;endSize=8;fillColor=#dae8fc;movable=1;resizable=1;rotatable=1;deletable=1;editable=1;locked=0;connectable=1;" edge="1" parent="1" source="xyV9kidvs-lGtWDfN0AB-16" target="xyV9kidvs-lGtWDfN0AB-19">
          <mxGeometry relative="1" as="geometry">
            <mxPoint x="142" y="184.97000000000003" as="sourcePoint" />
            <mxPoint x="-348" y="231.97000000000003" as="targetPoint" />
          </mxGeometry>
        </mxCell>
        <mxCell id="xyV9kidvs-lGtWDfN0AB-18" value="框架的体现" style="text;html=1;resizable=1;points=[];align=center;verticalAlign=middle;labelBackgroundColor=none;fontFamily=Comic Sans MS;rotation=-15;collapsible=0;movable=1;rotatable=1;deletable=1;editable=1;locked=0;connectable=1;" vertex="1" connectable="0" parent="xyV9kidvs-lGtWDfN0AB-17">
          <mxGeometry x="0.2571" relative="1" as="geometry">
            <mxPoint x="-2" y="-13" as="offset" />
          </mxGeometry>
        </mxCell>
        <mxCell id="xyV9kidvs-lGtWDfN0AB-19" value="" style="whiteSpace=wrap;html=1;rounded=1;arcSize=50;align=center;verticalAlign=middle;container=1;recursiveResize=0;strokeWidth=1;autosize=1;spacing=4;treeFolding=1;collapsible=0;movable=1;resizable=1;rotatable=1;deletable=1;editable=1;locked=0;connectable=1;" vertex="1" parent="1">
          <mxGeometry x="-207" y="27" width="5" as="geometry" />
        </mxCell>
        <mxCell id="xyV9kidvs-lGtWDfN0AB-20" value="" style="edgeStyle=entityRelationEdgeStyle;startArrow=none;endArrow=none;segment=10;curved=1;strokeColor=#660000;rounded=0;fontSize=12;startSize=8;endSize=8;movable=1;resizable=1;rotatable=1;deletable=1;editable=1;locked=0;connectable=1;" edge="1" parent="1" source="xyV9kidvs-lGtWDfN0AB-16" target="xyV9kidvs-lGtWDfN0AB-22">
          <mxGeometry relative="1" as="geometry">
            <mxPoint x="142" y="184.97000000000003" as="sourcePoint" />
            <mxPoint x="-348" y="231.97000000000003" as="targetPoint" />
          </mxGeometry>
        </mxCell>
        <mxCell id="xyV9kidvs-lGtWDfN0AB-21" value="Map接口" style="text;html=1;resizable=1;points=[];align=center;verticalAlign=middle;labelBackgroundColor=none;fontFamily=Comic Sans MS;rotation=20;collapsible=0;movable=1;rotatable=1;deletable=1;editable=1;locked=0;connectable=1;" vertex="1" connectable="0" parent="xyV9kidvs-lGtWDfN0AB-20">
          <mxGeometry x="0.2571" relative="1" as="geometry">
            <mxPoint x="-5" y="-9" as="offset" />
          </mxGeometry>
        </mxCell>
        <mxCell id="xyV9kidvs-lGtWDfN0AB-22" value="" style="whiteSpace=wrap;html=1;rounded=1;arcSize=50;align=center;verticalAlign=middle;container=1;recursiveResize=0;strokeWidth=1;autosize=1;spacing=4;treeFolding=1;collapsible=0;movable=1;resizable=1;rotatable=1;deletable=1;editable=1;locked=0;connectable=1;" vertex="1" parent="1">
          <mxGeometry x="-217" y="-49" width="5" as="geometry" />
        </mxCell>
        <mxCell id="xyV9kidvs-lGtWDfN0AB-23" value="" style="edgeStyle=entityRelationEdgeStyle;startArrow=none;endArrow=none;segment=10;curved=1;strokeColor=#660000;rounded=0;fontSize=12;startSize=8;endSize=8;movable=1;resizable=1;rotatable=1;deletable=1;editable=1;locked=0;connectable=1;" edge="1" parent="1" source="xyV9kidvs-lGtWDfN0AB-16" target="xyV9kidvs-lGtWDfN0AB-25">
          <mxGeometry relative="1" as="geometry">
            <mxPoint x="142" y="184.97000000000003" as="sourcePoint" />
            <mxPoint x="-348" y="231.97000000000003" as="targetPoint" />
          </mxGeometry>
        </mxCell>
        <mxCell id="xyV9kidvs-lGtWDfN0AB-24" value="Collection接口" style="text;html=1;resizable=1;points=[];align=center;verticalAlign=middle;labelBackgroundColor=none;fontFamily=Comic Sans MS;rotation=30;collapsible=0;movable=1;rotatable=1;deletable=1;editable=1;locked=0;connectable=1;" vertex="1" connectable="0" parent="xyV9kidvs-lGtWDfN0AB-23">
          <mxGeometry x="0.2571" relative="1" as="geometry">
            <mxPoint x="-2" y="-13" as="offset" />
          </mxGeometry>
        </mxCell>
        <mxCell id="xyV9kidvs-lGtWDfN0AB-25" value="" style="whiteSpace=wrap;html=1;rounded=1;arcSize=50;align=center;verticalAlign=middle;container=1;recursiveResize=0;strokeWidth=1;autosize=1;spacing=4;treeFolding=1;collapsible=0;movable=1;resizable=1;rotatable=1;deletable=1;editable=1;locked=0;connectable=1;" vertex="1" collapsed="1" parent="1">
          <mxGeometry x="-205" y="-108" width="5" as="geometry" />
        </mxCell>
        <mxCell id="xyV9kidvs-lGtWDfN0AB-26" value="" style="edgeStyle=entityRelationEdgeStyle;startArrow=none;endArrow=none;segment=10;curved=1;strokeColor=#660000;rounded=0;fontSize=12;startSize=8;endSize=8;movable=1;resizable=1;rotatable=1;deletable=1;editable=1;locked=0;connectable=1;" edge="1" parent="1" source="xyV9kidvs-lGtWDfN0AB-13" target="xyV9kidvs-lGtWDfN0AB-28">
          <mxGeometry relative="1" as="geometry">
            <mxPoint x="-314" y="193.47000000000003" as="sourcePoint" />
            <mxPoint x="-252" y="215.97000000000003" as="targetPoint" />
          </mxGeometry>
        </mxCell>
        <mxCell id="xyV9kidvs-lGtWDfN0AB-27" value="Sharing" style="text;html=1;resizable=1;points=[];align=center;verticalAlign=middle;labelBackgroundColor=none;fontFamily=Comic Sans MS;rotation=-1;fontSize=12;collapsible=0;movable=1;rotatable=1;deletable=1;editable=1;locked=0;connectable=1;" vertex="1" connectable="0" parent="xyV9kidvs-lGtWDfN0AB-26">
          <mxGeometry x="-0.1124" y="-1" relative="1" as="geometry">
            <mxPoint x="-37" y="-9" as="offset" />
          </mxGeometry>
        </mxCell>
        <mxCell id="xyV9kidvs-lGtWDfN0AB-28" value="" style="whiteSpace=wrap;html=1;rounded=1;arcSize=50;align=center;verticalAlign=middle;container=1;recursiveResize=0;strokeWidth=1;autosize=1;spacing=4;treeFolding=1;collapsible=0;movable=1;resizable=1;rotatable=1;deletable=1;editable=1;locked=0;connectable=1;" vertex="1" parent="1">
          <mxGeometry x="-52" y="14" height="2" as="geometry" />
        </mxCell>
        <mxCell id="xyV9kidvs-lGtWDfN0AB-29" value="" style="edgeStyle=entityRelationEdgeStyle;startArrow=none;endArrow=none;segment=10;curved=1;strokeColor=#660000;rounded=0;fontSize=12;startSize=8;endSize=8;movable=1;resizable=1;rotatable=1;deletable=1;editable=1;locked=0;connectable=1;" edge="1" parent="1" source="xyV9kidvs-lGtWDfN0AB-13" target="xyV9kidvs-lGtWDfN0AB-31">
          <mxGeometry relative="1" as="geometry">
            <mxPoint x="-252" y="270.47" as="sourcePoint" />
            <mxPoint x="-252" y="215.97000000000003" as="targetPoint" />
          </mxGeometry>
        </mxCell>
        <mxCell id="xyV9kidvs-lGtWDfN0AB-30" value="Colleagues" style="text;html=1;resizable=1;points=[];align=center;verticalAlign=middle;labelBackgroundColor=none;fontFamily=Comic Sans MS;rotation=-26;fontSize=12;collapsible=0;movable=1;rotatable=1;deletable=1;editable=1;locked=0;connectable=1;" vertex="1" connectable="0" parent="xyV9kidvs-lGtWDfN0AB-29">
          <mxGeometry x="-0.1124" y="-1" relative="1" as="geometry">
            <mxPoint x="-34" y="8" as="offset" />
          </mxGeometry>
        </mxCell>
        <mxCell id="xyV9kidvs-lGtWDfN0AB-31" value="" style="whiteSpace=wrap;html=1;rounded=1;arcSize=50;align=center;verticalAlign=middle;container=1;recursiveResize=0;strokeWidth=1;autosize=1;spacing=4;treeFolding=1;collapsible=0;movable=1;resizable=1;rotatable=1;deletable=1;editable=1;locked=0;connectable=1;" vertex="1" parent="1">
          <mxGeometry x="-44" y="71" height="1" as="geometry" />
        </mxCell>
        <mxCell id="xyV9kidvs-lGtWDfN0AB-32" value="" style="edgeStyle=entityRelationEdgeStyle;startArrow=none;endArrow=none;segment=10;curved=1;strokeColor=#336600;rounded=0;fontSize=12;startSize=8;endSize=8;movable=1;resizable=1;rotatable=1;deletable=1;editable=1;locked=0;connectable=1;" edge="1" parent="1" source="xyV9kidvs-lGtWDfN0AB-4" target="xyV9kidvs-lGtWDfN0AB-34">
          <mxGeometry relative="1" as="geometry">
            <mxPoint x="-186" y="7.5" as="sourcePoint" />
            <mxPoint x="-124" y="30" as="targetPoint" />
          </mxGeometry>
        </mxCell>
        <mxCell id="xyV9kidvs-lGtWDfN0AB-33" value="设计模式" style="text;html=1;resizable=1;points=[];align=center;verticalAlign=middle;labelBackgroundColor=none;fontFamily=Comic Sans MS;rotation=-1;fontSize=10;movable=1;rotatable=1;deletable=1;editable=1;locked=0;connectable=1;" vertex="1" connectable="0" parent="xyV9kidvs-lGtWDfN0AB-32">
          <mxGeometry x="-0.1124" y="-1" relative="1" as="geometry">
            <mxPoint x="-18" y="-6" as="offset" />
          </mxGeometry>
        </mxCell>
        <mxCell id="xyV9kidvs-lGtWDfN0AB-34" value="" style="whiteSpace=wrap;html=1;rounded=1;arcSize=50;align=center;verticalAlign=middle;container=1;recursiveResize=0;strokeWidth=1;autosize=1;spacing=4;treeFolding=1;collapsible=0;movable=1;resizable=1;rotatable=1;deletable=1;editable=1;locked=0;connectable=1;" vertex="1" collapsed="1" parent="1">
          <mxGeometry x="143" y="-135" height="1" as="geometry" />
        </mxCell>
        <mxCell id="xyV9kidvs-lGtWDfN0AB-35" value="" style="edgeStyle=entityRelationEdgeStyle;startArrow=none;endArrow=none;segment=10;curved=1;strokeColor=#336600;rounded=0;fontSize=12;startSize=8;endSize=8;movable=1;resizable=1;rotatable=1;deletable=1;editable=1;locked=0;connectable=1;" edge="1" parent="1" source="xyV9kidvs-lGtWDfN0AB-4" target="xyV9kidvs-lGtWDfN0AB-36">
          <mxGeometry relative="1" as="geometry">
            <mxPoint x="-181" y="17.5" as="sourcePoint" />
            <mxPoint x="-119" y="40" as="targetPoint" />
          </mxGeometry>
        </mxCell>
        <mxCell id="xyV9kidvs-lGtWDfN0AB-36" value="" style="whiteSpace=wrap;html=1;rounded=1;arcSize=50;align=center;verticalAlign=middle;container=1;recursiveResize=0;strokeWidth=1;autosize=1;spacing=4;treeFolding=1;collapsible=0;movable=1;resizable=1;rotatable=1;deletable=1;editable=1;locked=0;connectable=1;" vertex="1" collapsed="1" parent="1">
          <mxGeometry x="120" y="-56" width="5" as="geometry" />
        </mxCell>
        <mxCell id="xyV9kidvs-lGtWDfN0AB-37" value="" style="startArrow=none;endArrow=none;segment=10;strokeWidth=2;strokeColor=#CCCC00;exitX=0.5;exitY=1;curved=1;rounded=0;fontSize=12;startSize=8;endSize=8;movable=1;resizable=1;rotatable=1;deletable=1;editable=1;locked=0;connectable=1;" edge="1" parent="1" source="xyV9kidvs-lGtWDfN0AB-1" target="xyV9kidvs-lGtWDfN0AB-39">
          <mxGeometry relative="1" as="geometry">
            <mxPoint x="120" y="84.50000000000023" as="sourcePoint" />
            <mxPoint x="9" y="139.5" as="targetPoint" />
            <Array as="points">
              <mxPoint x="400" y="158" />
              <mxPoint x="385" y="175" />
              <mxPoint x="343" y="195" />
            </Array>
          </mxGeometry>
        </mxCell>
        <mxCell id="xyV9kidvs-lGtWDfN0AB-38" value="数据库接口JDBC&lt;div&gt;&lt;br&gt;&lt;/div&gt;" style="text;html=1;resizable=1;points=[];align=center;verticalAlign=middle;labelBackgroundColor=none;rotation=-30;fontFamily=Comic Sans MS;movable=1;rotatable=1;deletable=1;editable=1;locked=0;connectable=1;" vertex="1" connectable="0" parent="xyV9kidvs-lGtWDfN0AB-37">
          <mxGeometry x="0.0245" y="2" relative="1" as="geometry">
            <mxPoint x="-24" y="-2" as="offset" />
          </mxGeometry>
        </mxCell>
        <mxCell id="xyV9kidvs-lGtWDfN0AB-39" value="" style="whiteSpace=wrap;html=1;rounded=1;arcSize=50;align=center;verticalAlign=middle;container=1;recursiveResize=0;strokeWidth=1;autosize=1;spacing=4;treeFolding=1;movable=1;resizable=1;rotatable=1;deletable=1;editable=1;locked=0;connectable=1;" vertex="1" parent="1">
          <mxGeometry x="324" y="219" height="1" as="geometry" />
        </mxCell>
        <mxCell id="xyV9kidvs-lGtWDfN0AB-40" value="" style="edgeStyle=entityRelationEdgeStyle;startArrow=none;endArrow=none;segment=10;curved=1;strokeColor=#CCCC00;rounded=0;fontSize=12;startSize=8;endSize=8;movable=1;resizable=1;rotatable=1;deletable=1;editable=1;locked=0;connectable=1;" edge="1" parent="1" source="xyV9kidvs-lGtWDfN0AB-39" target="xyV9kidvs-lGtWDfN0AB-42">
          <mxGeometry relative="1" as="geometry">
            <mxPoint x="-341" y="275.5" as="sourcePoint" />
            <mxPoint x="-279" y="298" as="targetPoint" />
          </mxGeometry>
        </mxCell>
        <mxCell id="xyV9kidvs-lGtWDfN0AB-41" value="组件" style="text;html=1;resizable=1;points=[];align=center;verticalAlign=middle;labelBackgroundColor=none;fontFamily=Comic Sans MS;rotation=15;fontSize=12;movable=1;rotatable=1;deletable=1;editable=1;locked=0;connectable=1;" vertex="1" connectable="0" parent="xyV9kidvs-lGtWDfN0AB-40">
          <mxGeometry x="-0.1124" y="-1" relative="1" as="geometry">
            <mxPoint x="-6" y="-13" as="offset" />
          </mxGeometry>
        </mxCell>
        <mxCell id="xyV9kidvs-lGtWDfN0AB-42" value="" style="whiteSpace=wrap;html=1;rounded=1;arcSize=50;align=center;verticalAlign=middle;container=1;recursiveResize=0;strokeWidth=1;autosize=1;spacing=4;treeFolding=1;collapsible=0;movable=1;resizable=1;rotatable=1;deletable=1;editable=1;locked=0;connectable=1;" vertex="1" collapsed="1" parent="1">
          <mxGeometry x="207" y="193" height="1" as="geometry" />
        </mxCell>
        <mxCell id="xyV9kidvs-lGtWDfN0AB-43" value="" style="startArrow=none;endArrow=none;segment=10;strokeColor=#CCCC00;curved=1;rounded=0;fontSize=12;startSize=8;endSize=8;movable=1;resizable=1;rotatable=1;deletable=1;editable=1;locked=0;connectable=1;" edge="1" parent="1" source="xyV9kidvs-lGtWDfN0AB-39" target="xyV9kidvs-lGtWDfN0AB-45">
          <mxGeometry relative="1" as="geometry">
            <mxPoint x="-279" y="352.5" as="sourcePoint" />
            <mxPoint x="15" y="267" as="targetPoint" />
            <Array as="points">
              <mxPoint x="289" y="252" />
            </Array>
          </mxGeometry>
        </mxCell>
        <mxCell id="xyV9kidvs-lGtWDfN0AB-44" value="驱动" style="text;html=1;resizable=1;points=[];align=center;verticalAlign=middle;labelBackgroundColor=none;fontFamily=Comic Sans MS;rotation=-15;fontSize=12;collapsible=0;movable=1;rotatable=1;deletable=1;editable=1;locked=0;connectable=1;" vertex="1" connectable="0" parent="xyV9kidvs-lGtWDfN0AB-43">
          <mxGeometry x="-0.1124" y="-1" relative="1" as="geometry">
            <mxPoint x="-30" y="-10" as="offset" />
          </mxGeometry>
        </mxCell>
        <mxCell id="xyV9kidvs-lGtWDfN0AB-45" value="" style="whiteSpace=wrap;html=1;rounded=1;arcSize=50;align=center;verticalAlign=middle;container=1;recursiveResize=0;strokeWidth=1;autosize=1;spacing=4;treeFolding=1;collapsible=0;movable=1;resizable=1;rotatable=1;deletable=1;editable=1;locked=0;connectable=1;" vertex="1" collapsed="1" parent="1">
          <mxGeometry x="215" y="261" height="1" as="geometry" />
        </mxCell>
        <mxCell id="xyV9kidvs-lGtWDfN0AB-46" value="" style="edgeStyle=entityRelationEdgeStyle;startArrow=none;endArrow=none;segment=10;curved=1;strokeWidth=2;strokeColor=#000099;rounded=0;fontSize=12;startSize=8;endSize=8;movable=1;resizable=1;rotatable=1;deletable=1;editable=1;locked=0;connectable=1;" edge="1" parent="1" source="xyV9kidvs-lGtWDfN0AB-1" target="xyV9kidvs-lGtWDfN0AB-48">
          <mxGeometry relative="1" as="geometry">
            <mxPoint x="228" y="84.5" as="sourcePoint" />
            <mxPoint x="332" y="154.5" as="targetPoint" />
          </mxGeometry>
        </mxCell>
        <mxCell id="xyV9kidvs-lGtWDfN0AB-47" value="多线程" style="text;html=1;resizable=1;points=[];align=center;verticalAlign=middle;labelBackgroundColor=none;rotation=60;fontFamily=Comic Sans MS;movable=1;rotatable=1;deletable=1;editable=1;locked=0;connectable=1;" vertex="1" connectable="0" parent="xyV9kidvs-lGtWDfN0AB-46">
          <mxGeometry x="0.0245" y="2" relative="1" as="geometry">
            <mxPoint x="13" y="6" as="offset" />
          </mxGeometry>
        </mxCell>
        <mxCell id="xyV9kidvs-lGtWDfN0AB-48" value="" style="whiteSpace=wrap;html=1;rounded=1;arcSize=50;align=center;verticalAlign=middle;container=1;recursiveResize=0;strokeWidth=1;autosize=1;spacing=4;treeFolding=1;movable=1;resizable=1;rotatable=1;deletable=1;editable=1;locked=0;connectable=1;" vertex="1" parent="1">
          <mxGeometry x="541" y="218" height="1" as="geometry" />
        </mxCell>
        <mxCell id="xyV9kidvs-lGtWDfN0AB-49" value="" style="edgeStyle=entityRelationEdgeStyle;startArrow=none;endArrow=none;segment=10;curved=1;strokeColor=#000099;rounded=0;fontSize=12;startSize=8;endSize=8;movable=1;resizable=1;rotatable=1;deletable=1;editable=1;locked=0;connectable=1;" edge="1" parent="1" source="xyV9kidvs-lGtWDfN0AB-48" target="xyV9kidvs-lGtWDfN0AB-51">
          <mxGeometry relative="1" as="geometry">
            <mxPoint x="321" y="218.5" as="sourcePoint" />
            <mxPoint x="321" y="164" as="targetPoint" />
          </mxGeometry>
        </mxCell>
        <mxCell id="xyV9kidvs-lGtWDfN0AB-50" value="Thoughts" style="text;html=1;resizable=1;points=[];align=center;verticalAlign=middle;labelBackgroundColor=none;fontFamily=Comic Sans MS;rotation=30;movable=1;rotatable=1;deletable=1;editable=1;locked=0;connectable=1;" vertex="1" connectable="0" parent="xyV9kidvs-lGtWDfN0AB-49">
          <mxGeometry x="-0.1124" y="-1" relative="1" as="geometry">
            <mxPoint x="28" y="1" as="offset" />
          </mxGeometry>
        </mxCell>
        <mxCell id="xyV9kidvs-lGtWDfN0AB-51" value="" style="whiteSpace=wrap;html=1;rounded=1;arcSize=50;align=center;verticalAlign=middle;container=1;recursiveResize=0;strokeWidth=1;autosize=1;spacing=4;treeFolding=1;collapsible=0;movable=1;resizable=1;rotatable=1;deletable=1;editable=1;locked=0;connectable=1;" vertex="1" parent="1">
          <mxGeometry x="661" y="288" height="1" as="geometry" />
        </mxCell>
        <mxCell id="xyV9kidvs-lGtWDfN0AB-52" value="" style="edgeStyle=entityRelationEdgeStyle;startArrow=none;endArrow=none;segment=10;curved=1;strokeColor=#000099;rounded=0;fontSize=12;startSize=8;endSize=8;movable=1;resizable=1;rotatable=1;deletable=1;editable=1;locked=0;connectable=1;" edge="1" parent="1" source="xyV9kidvs-lGtWDfN0AB-48" target="xyV9kidvs-lGtWDfN0AB-54">
          <mxGeometry relative="1" as="geometry">
            <mxPoint x="259" y="141.5" as="sourcePoint" />
            <mxPoint x="321" y="164" as="targetPoint" />
          </mxGeometry>
        </mxCell>
        <mxCell id="xyV9kidvs-lGtWDfN0AB-53" value="接口集" style="text;html=1;resizable=1;points=[];align=center;verticalAlign=middle;labelBackgroundColor=none;fontFamily=Comic Sans MS;rotation=0;movable=1;rotatable=1;deletable=1;editable=1;locked=0;connectable=1;" vertex="1" connectable="0" parent="xyV9kidvs-lGtWDfN0AB-52">
          <mxGeometry x="-0.1124" y="-1" relative="1" as="geometry">
            <mxPoint x="24" y="-12" as="offset" />
          </mxGeometry>
        </mxCell>
        <mxCell id="xyV9kidvs-lGtWDfN0AB-54" value="" style="whiteSpace=wrap;html=1;rounded=1;arcSize=50;align=center;verticalAlign=middle;container=1;recursiveResize=0;strokeWidth=1;autosize=1;spacing=4;treeFolding=1;collapsible=0;movable=1;resizable=1;rotatable=1;deletable=1;editable=1;locked=0;connectable=1;" vertex="1" parent="1">
          <mxGeometry x="661" y="228" height="1" as="geometry" />
        </mxCell>
        <mxCell id="xyV9kidvs-lGtWDfN0AB-55" value="" style="edgeStyle=entityRelationEdgeStyle;startArrow=none;endArrow=none;segment=10;curved=1;strokeColor=#000099;rounded=0;fontSize=12;startSize=8;endSize=8;movable=1;resizable=1;rotatable=1;deletable=1;editable=1;locked=0;connectable=1;" edge="1" parent="1" source="xyV9kidvs-lGtWDfN0AB-48" target="xyV9kidvs-lGtWDfN0AB-57">
          <mxGeometry relative="1" as="geometry">
            <mxPoint x="264" y="151.5" as="sourcePoint" />
            <mxPoint x="326" y="174" as="targetPoint" />
          </mxGeometry>
        </mxCell>
        <mxCell id="xyV9kidvs-lGtWDfN0AB-56" value="框架体现" style="text;html=1;resizable=1;points=[];align=center;verticalAlign=middle;labelBackgroundColor=none;fontFamily=Comic Sans MS;rotation=-30;movable=1;rotatable=1;deletable=1;editable=1;locked=0;connectable=1;" vertex="1" connectable="0" parent="xyV9kidvs-lGtWDfN0AB-55">
          <mxGeometry x="0.2571" relative="1" as="geometry">
            <mxPoint x="3" y="-14" as="offset" />
          </mxGeometry>
        </mxCell>
        <mxCell id="xyV9kidvs-lGtWDfN0AB-57" value="" style="whiteSpace=wrap;html=1;rounded=1;arcSize=50;align=center;verticalAlign=middle;container=1;recursiveResize=0;strokeWidth=1;autosize=1;spacing=4;treeFolding=1;collapsible=0;movable=1;resizable=1;rotatable=1;deletable=1;editable=1;locked=0;connectable=1;" vertex="1" parent="1">
          <mxGeometry x="639" y="178" width="5" as="geometry" />
        </mxCell>
        <mxCell id="xyV9kidvs-lGtWDfN0AB-58" value="" style="edgeStyle=entityRelationEdgeStyle;startArrow=none;endArrow=none;segment=10;curved=1;strokeWidth=2;strokeColor=#660000;rounded=0;fontSize=12;startSize=8;endSize=8;movable=1;resizable=1;rotatable=1;deletable=1;editable=1;locked=0;connectable=1;" edge="1" parent="1" source="xyV9kidvs-lGtWDfN0AB-1" target="xyV9kidvs-lGtWDfN0AB-60">
          <mxGeometry relative="1" as="geometry">
            <mxPoint x="230" y="61.5" as="sourcePoint" />
            <mxPoint x="292" y="84" as="targetPoint" />
          </mxGeometry>
        </mxCell>
        <mxCell id="xyV9kidvs-lGtWDfN0AB-59" value="面向对象" style="text;html=1;resizable=1;points=[];align=center;verticalAlign=middle;labelBackgroundColor=none;rotation=-30;fontFamily=Comic Sans MS;movable=1;rotatable=1;deletable=1;editable=1;locked=0;connectable=1;" vertex="1" connectable="0" parent="xyV9kidvs-lGtWDfN0AB-58">
          <mxGeometry x="0.0245" y="2" relative="1" as="geometry">
            <mxPoint x="1" y="-9" as="offset" />
          </mxGeometry>
        </mxCell>
        <mxCell id="xyV9kidvs-lGtWDfN0AB-60" value="" style="whiteSpace=wrap;html=1;rounded=1;arcSize=50;align=center;verticalAlign=middle;container=1;recursiveResize=0;strokeWidth=1;autosize=1;spacing=4;treeFolding=1;movable=1;resizable=1;rotatable=1;deletable=1;editable=1;locked=0;connectable=1;" vertex="1" parent="1">
          <mxGeometry x="538" y="44" height="1" as="geometry" />
        </mxCell>
        <mxCell id="xyV9kidvs-lGtWDfN0AB-61" value="" style="edgeStyle=entityRelationEdgeStyle;startArrow=none;endArrow=none;segment=10;curved=1;strokeColor=#660000;rounded=0;fontSize=12;startSize=8;endSize=8;movable=1;resizable=1;rotatable=1;deletable=1;editable=1;locked=0;connectable=1;" edge="1" parent="1" source="xyV9kidvs-lGtWDfN0AB-60" target="xyV9kidvs-lGtWDfN0AB-63">
          <mxGeometry relative="1" as="geometry">
            <mxPoint x="318" y="44.5" as="sourcePoint" />
            <mxPoint x="318" y="-10" as="targetPoint" />
          </mxGeometry>
        </mxCell>
        <mxCell id="xyV9kidvs-lGtWDfN0AB-62" value="Strategies" style="text;html=1;resizable=1;points=[];align=center;verticalAlign=middle;labelBackgroundColor=none;fontFamily=Comic Sans MS;rotation=30;movable=1;rotatable=1;deletable=1;editable=1;locked=0;connectable=1;" vertex="1" connectable="0" parent="xyV9kidvs-lGtWDfN0AB-61">
          <mxGeometry x="-0.1124" y="-1" relative="1" as="geometry">
            <mxPoint x="28" y="1" as="offset" />
          </mxGeometry>
        </mxCell>
        <mxCell id="xyV9kidvs-lGtWDfN0AB-63" value="" style="whiteSpace=wrap;html=1;rounded=1;arcSize=50;align=center;verticalAlign=middle;container=1;recursiveResize=0;strokeWidth=1;autosize=1;spacing=4;treeFolding=1;collapsible=0;movable=1;resizable=1;rotatable=1;deletable=1;editable=1;locked=0;connectable=1;" vertex="1" parent="1">
          <mxGeometry x="634" y="101" height="1" as="geometry" />
        </mxCell>
        <mxCell id="xyV9kidvs-lGtWDfN0AB-64" value="" style="edgeStyle=entityRelationEdgeStyle;startArrow=none;endArrow=none;segment=10;curved=1;strokeColor=#660000;rounded=0;fontSize=12;startSize=8;endSize=8;movable=1;resizable=1;rotatable=1;deletable=1;editable=1;locked=0;connectable=1;" edge="1" parent="1" source="xyV9kidvs-lGtWDfN0AB-60" target="xyV9kidvs-lGtWDfN0AB-66">
          <mxGeometry relative="1" as="geometry">
            <mxPoint x="256" y="-32.5" as="sourcePoint" />
            <mxPoint x="318" y="-10" as="targetPoint" />
          </mxGeometry>
        </mxCell>
        <mxCell id="xyV9kidvs-lGtWDfN0AB-65" value="类之间的关系" style="text;html=1;resizable=1;points=[];align=center;verticalAlign=middle;labelBackgroundColor=none;fontFamily=Comic Sans MS;rotation=0;movable=1;rotatable=1;deletable=1;editable=1;locked=0;connectable=1;" vertex="1" connectable="0" parent="xyV9kidvs-lGtWDfN0AB-64">
          <mxGeometry x="-0.1124" y="-1" relative="1" as="geometry">
            <mxPoint x="24" y="-12" as="offset" />
          </mxGeometry>
        </mxCell>
        <mxCell id="xyV9kidvs-lGtWDfN0AB-66" value="" style="whiteSpace=wrap;html=1;rounded=1;arcSize=50;align=center;verticalAlign=middle;container=1;recursiveResize=0;strokeWidth=1;autosize=1;spacing=4;treeFolding=1;collapsible=0;movable=1;resizable=1;rotatable=1;deletable=1;editable=1;locked=0;connectable=1;" vertex="1" parent="1">
          <mxGeometry x="634" y="45" height="1" as="geometry" />
        </mxCell>
        <mxCell id="xyV9kidvs-lGtWDfN0AB-67" value="" style="edgeStyle=entityRelationEdgeStyle;startArrow=none;endArrow=none;segment=10;curved=1;strokeColor=#660000;rounded=0;fontSize=12;startSize=8;endSize=8;movable=1;resizable=1;rotatable=1;deletable=1;editable=1;locked=0;connectable=1;" edge="1" parent="1" source="xyV9kidvs-lGtWDfN0AB-66" target="xyV9kidvs-lGtWDfN0AB-69">
          <mxGeometry relative="1" as="geometry">
            <mxPoint x="725" y="82" as="sourcePoint" />
            <mxPoint x="505" y="27" as="targetPoint" />
          </mxGeometry>
        </mxCell>
        <mxCell id="xyV9kidvs-lGtWDfN0AB-68" value="继承" style="text;html=1;resizable=1;points=[];align=center;verticalAlign=middle;labelBackgroundColor=none;fontFamily=Comic Sans MS;rotation=0;movable=1;rotatable=1;deletable=1;editable=1;locked=0;connectable=1;" vertex="1" connectable="0" parent="xyV9kidvs-lGtWDfN0AB-67">
          <mxGeometry x="-0.1124" y="-1" relative="1" as="geometry">
            <mxPoint x="9" y="-9" as="offset" />
          </mxGeometry>
        </mxCell>
        <mxCell id="xyV9kidvs-lGtWDfN0AB-69" value="" style="whiteSpace=wrap;html=1;rounded=1;arcSize=50;align=center;verticalAlign=middle;container=1;recursiveResize=0;strokeWidth=1;autosize=1;spacing=4;treeFolding=1;collapsible=0;movable=1;resizable=1;rotatable=1;deletable=1;editable=1;locked=0;connectable=1;" vertex="1" parent="1">
          <mxGeometry x="865" y="-68" height="1" as="geometry" />
        </mxCell>
        <mxCell id="xyV9kidvs-lGtWDfN0AB-70" value="" style="edgeStyle=entityRelationEdgeStyle;startArrow=none;endArrow=none;segment=10;curved=1;strokeColor=#660000;rounded=0;fontSize=12;startSize=8;endSize=8;movable=1;resizable=1;rotatable=1;deletable=1;editable=1;locked=0;connectable=1;" edge="1" parent="1" source="xyV9kidvs-lGtWDfN0AB-66" target="xyV9kidvs-lGtWDfN0AB-72">
          <mxGeometry relative="1" as="geometry">
            <mxPoint x="725" y="82" as="sourcePoint" />
            <mxPoint x="505" y="27" as="targetPoint" />
          </mxGeometry>
        </mxCell>
        <mxCell id="xyV9kidvs-lGtWDfN0AB-71" value="依赖" style="text;html=1;resizable=1;points=[];align=center;verticalAlign=middle;labelBackgroundColor=none;fontFamily=Comic Sans MS;rotation=0;movable=1;rotatable=1;deletable=1;editable=1;locked=0;connectable=1;" vertex="1" connectable="0" parent="xyV9kidvs-lGtWDfN0AB-70">
          <mxGeometry x="-0.1124" y="-1" relative="1" as="geometry">
            <mxPoint x="13" y="-1" as="offset" />
          </mxGeometry>
        </mxCell>
        <mxCell id="xyV9kidvs-lGtWDfN0AB-72" value="" style="whiteSpace=wrap;html=1;rounded=1;arcSize=50;align=center;verticalAlign=middle;container=1;recursiveResize=0;strokeWidth=1;autosize=1;spacing=4;treeFolding=1;collapsible=0;movable=1;resizable=1;rotatable=1;deletable=1;editable=1;locked=0;connectable=1;" vertex="1" parent="1">
          <mxGeometry x="865" y="12.000000000000057" height="1" as="geometry" />
        </mxCell>
        <mxCell id="xyV9kidvs-lGtWDfN0AB-73" value="" style="edgeStyle=entityRelationEdgeStyle;startArrow=none;endArrow=none;segment=10;curved=1;strokeColor=#660000;rounded=0;fontSize=12;startSize=8;endSize=8;movable=1;resizable=1;rotatable=1;deletable=1;editable=1;locked=0;connectable=1;" edge="1" parent="1" source="xyV9kidvs-lGtWDfN0AB-66" target="xyV9kidvs-lGtWDfN0AB-75">
          <mxGeometry relative="1" as="geometry">
            <mxPoint x="725" y="82" as="sourcePoint" />
            <mxPoint x="505" y="27" as="targetPoint" />
          </mxGeometry>
        </mxCell>
        <mxCell id="xyV9kidvs-lGtWDfN0AB-74" value="实现" style="text;html=1;resizable=1;points=[];align=center;verticalAlign=middle;labelBackgroundColor=none;fontFamily=Comic Sans MS;rotation=0;movable=1;rotatable=1;deletable=1;editable=1;locked=0;connectable=1;" vertex="1" connectable="0" parent="xyV9kidvs-lGtWDfN0AB-73">
          <mxGeometry x="-0.1124" y="-1" relative="1" as="geometry">
            <mxPoint x="12" y="3" as="offset" />
          </mxGeometry>
        </mxCell>
        <mxCell id="xyV9kidvs-lGtWDfN0AB-75" value="" style="whiteSpace=wrap;html=1;rounded=1;arcSize=50;align=center;verticalAlign=middle;container=1;recursiveResize=0;strokeWidth=1;autosize=1;spacing=4;treeFolding=1;collapsible=0;movable=1;resizable=1;rotatable=1;deletable=1;editable=1;locked=0;connectable=1;" vertex="1" parent="1">
          <mxGeometry x="865" y="43.999999999999886" height="1" as="geometry" />
        </mxCell>
        <mxCell id="xyV9kidvs-lGtWDfN0AB-76" value="" style="edgeStyle=entityRelationEdgeStyle;startArrow=none;endArrow=none;segment=10;curved=1;strokeColor=#660000;rounded=0;fontSize=12;startSize=8;endSize=8;movable=1;resizable=1;rotatable=1;deletable=1;editable=1;locked=0;connectable=1;" edge="1" parent="1" source="xyV9kidvs-lGtWDfN0AB-66" target="xyV9kidvs-lGtWDfN0AB-78">
          <mxGeometry relative="1" as="geometry">
            <mxPoint x="725" y="82" as="sourcePoint" />
            <mxPoint x="505" y="27" as="targetPoint" />
          </mxGeometry>
        </mxCell>
        <mxCell id="xyV9kidvs-lGtWDfN0AB-77" value="组合" style="text;html=1;resizable=1;points=[];align=center;verticalAlign=middle;labelBackgroundColor=none;fontFamily=Comic Sans MS;rotation=0;movable=1;rotatable=1;deletable=1;editable=1;locked=0;connectable=1;" vertex="1" connectable="0" parent="xyV9kidvs-lGtWDfN0AB-76">
          <mxGeometry x="-0.1124" y="-1" relative="1" as="geometry">
            <mxPoint x="12" y="5" as="offset" />
          </mxGeometry>
        </mxCell>
        <mxCell id="xyV9kidvs-lGtWDfN0AB-78" value="" style="whiteSpace=wrap;html=1;rounded=1;arcSize=50;align=center;verticalAlign=middle;container=1;recursiveResize=0;strokeWidth=1;autosize=1;spacing=4;treeFolding=1;collapsible=0;movable=1;resizable=1;rotatable=1;deletable=1;editable=1;locked=0;connectable=1;" vertex="1" parent="1">
          <mxGeometry x="860" y="82.99999999999989" height="1" as="geometry" />
        </mxCell>
        <mxCell id="xyV9kidvs-lGtWDfN0AB-79" value="" style="edgeStyle=entityRelationEdgeStyle;startArrow=none;endArrow=none;segment=10;curved=1;strokeColor=#660000;rounded=0;fontSize=12;startSize=8;endSize=8;movable=1;resizable=1;rotatable=1;deletable=1;editable=1;locked=0;connectable=1;" edge="1" parent="1" source="xyV9kidvs-lGtWDfN0AB-66" target="xyV9kidvs-lGtWDfN0AB-81">
          <mxGeometry relative="1" as="geometry">
            <mxPoint x="725" y="82" as="sourcePoint" />
            <mxPoint x="505" y="27" as="targetPoint" />
          </mxGeometry>
        </mxCell>
        <mxCell id="xyV9kidvs-lGtWDfN0AB-80" value="聚合" style="text;html=1;resizable=1;points=[];align=center;verticalAlign=middle;labelBackgroundColor=none;fontFamily=Comic Sans MS;rotation=0;movable=1;rotatable=1;deletable=1;editable=1;locked=0;connectable=1;" vertex="1" connectable="0" parent="xyV9kidvs-lGtWDfN0AB-79">
          <mxGeometry x="-0.1124" y="-1" relative="1" as="geometry">
            <mxPoint x="9" y="10" as="offset" />
          </mxGeometry>
        </mxCell>
        <mxCell id="xyV9kidvs-lGtWDfN0AB-81" value="" style="whiteSpace=wrap;html=1;rounded=1;arcSize=50;align=center;verticalAlign=middle;container=1;recursiveResize=0;strokeWidth=1;autosize=1;spacing=4;treeFolding=1;collapsible=0;movable=1;resizable=1;rotatable=1;deletable=1;editable=1;locked=0;connectable=1;" vertex="1" parent="1">
          <mxGeometry x="862" y="121.99999999999977" height="1" as="geometry" />
        </mxCell>
        <mxCell id="xyV9kidvs-lGtWDfN0AB-82" value="" style="edgeStyle=entityRelationEdgeStyle;startArrow=none;endArrow=none;segment=10;curved=1;strokeColor=#660000;rounded=0;fontSize=12;startSize=8;endSize=8;movable=1;resizable=1;rotatable=1;deletable=1;editable=1;locked=0;connectable=1;" edge="1" parent="1" source="xyV9kidvs-lGtWDfN0AB-66" target="xyV9kidvs-lGtWDfN0AB-84">
          <mxGeometry relative="1" as="geometry">
            <mxPoint x="725" y="82" as="sourcePoint" />
            <mxPoint x="505" y="27" as="targetPoint" />
          </mxGeometry>
        </mxCell>
        <mxCell id="xyV9kidvs-lGtWDfN0AB-83" value="关联" style="text;html=1;resizable=1;points=[];align=center;verticalAlign=middle;labelBackgroundColor=none;fontFamily=Comic Sans MS;rotation=0;movable=1;rotatable=1;deletable=1;editable=1;locked=0;connectable=1;" vertex="1" connectable="0" parent="xyV9kidvs-lGtWDfN0AB-82">
          <mxGeometry x="-0.1124" y="-1" relative="1" as="geometry">
            <mxPoint x="13" y="-7" as="offset" />
          </mxGeometry>
        </mxCell>
        <mxCell id="xyV9kidvs-lGtWDfN0AB-84" value="" style="whiteSpace=wrap;html=1;rounded=1;arcSize=50;align=center;verticalAlign=middle;container=1;recursiveResize=0;strokeWidth=1;autosize=1;spacing=4;treeFolding=1;collapsible=0;movable=1;resizable=1;rotatable=1;deletable=1;editable=1;locked=0;connectable=1;" vertex="1" parent="1">
          <mxGeometry x="865" y="-24.000000000000227" height="1" as="geometry" />
        </mxCell>
        <mxCell id="xyV9kidvs-lGtWDfN0AB-85" value="" style="edgeStyle=entityRelationEdgeStyle;startArrow=none;endArrow=none;segment=10;curved=1;strokeColor=#660000;rounded=0;fontSize=12;startSize=8;endSize=8;movable=1;resizable=1;rotatable=1;deletable=1;editable=1;locked=0;connectable=1;" edge="1" parent="1" source="xyV9kidvs-lGtWDfN0AB-60" target="xyV9kidvs-lGtWDfN0AB-87">
          <mxGeometry relative="1" as="geometry">
            <mxPoint x="261" y="-22.5" as="sourcePoint" />
            <mxPoint x="323" as="targetPoint" />
          </mxGeometry>
        </mxCell>
        <mxCell id="xyV9kidvs-lGtWDfN0AB-86" value="类加载器:Class" style="text;html=1;resizable=1;points=[];align=center;verticalAlign=middle;labelBackgroundColor=none;fontFamily=Comic Sans MS;rotation=-30;movable=1;rotatable=1;deletable=1;editable=1;locked=0;connectable=1;" vertex="1" parent="xyV9kidvs-lGtWDfN0AB-85">
          <mxGeometry x="0.2571" relative="1" as="geometry">
            <mxPoint x="3" y="-14" as="offset" />
          </mxGeometry>
        </mxCell>
        <mxCell id="xyV9kidvs-lGtWDfN0AB-87" value="" style="whiteSpace=wrap;html=1;rounded=1;arcSize=50;align=center;verticalAlign=middle;container=1;recursiveResize=0;strokeWidth=1;autosize=1;spacing=4;treeFolding=1;collapsible=0;movable=1;resizable=1;rotatable=1;deletable=1;editable=1;locked=0;connectable=1;" vertex="1" collapsed="1" parent="1">
          <mxGeometry x="629" y="-6" width="5" as="geometry" />
        </mxCell>
        <mxCell id="xyV9kidvs-lGtWDfN0AB-88" value="" style="edgeStyle=entityRelationEdgeStyle;startArrow=none;endArrow=none;segment=10;curved=1;strokeWidth=2;strokeColor=#336600;rounded=0;fontSize=12;startSize=8;endSize=8;movable=1;resizable=1;rotatable=1;deletable=1;editable=1;locked=0;connectable=1;" edge="1" parent="1" source="xyV9kidvs-lGtWDfN0AB-1" target="xyV9kidvs-lGtWDfN0AB-90">
          <mxGeometry relative="1" as="geometry">
            <mxPoint x="424" y="165" as="sourcePoint" />
            <mxPoint x="402" y="124.5" as="targetPoint" />
          </mxGeometry>
        </mxCell>
        <mxCell id="xyV9kidvs-lGtWDfN0AB-89" value="框架" style="text;html=1;resizable=1;points=[];align=center;verticalAlign=middle;labelBackgroundColor=none;rotation=50;fontFamily=Comic Sans MS;movable=1;rotatable=1;deletable=1;editable=1;locked=0;connectable=1;" vertex="1" connectable="0" parent="xyV9kidvs-lGtWDfN0AB-88">
          <mxGeometry x="0.0245" y="2" relative="1" as="geometry">
            <mxPoint x="12" y="-7" as="offset" />
          </mxGeometry>
        </mxCell>
        <mxCell id="xyV9kidvs-lGtWDfN0AB-90" value="" style="whiteSpace=wrap;html=1;rounded=1;arcSize=50;align=center;verticalAlign=middle;container=1;recursiveResize=0;strokeWidth=1;autosize=1;spacing=4;treeFolding=1;movable=1;resizable=1;rotatable=1;deletable=1;editable=1;locked=0;connectable=1;" vertex="1" collapsed="1" parent="1">
          <mxGeometry x="242" y="101" height="92" as="geometry" />
        </mxCell>
      </root>
    </mxGraphModel>
  </diagram>
</mxfile>
